<?xml version="1.0" encoding="utf-8"?>
<!-- Generator: Adobe Illustrator 16.0.0, SVG Export Plug-In . SVG Version: 6.00 Build 0)  -->
<!DOCTYPE svg PUBLIC "-//W3C//DTD SVG 1.1//EN" "http://www.w3.org/Graphics/SVG/1.1/DTD/svg11.dtd">
<svg xmlns="http://www.w3.org/2000/svg" viewBox="0 0 30.82 32.09"><defs><style>.cls-1{fill:#3f3843;}</style></defs><title>Ресурс 1</title><g id="Слой_2" data-name="Слой 2"><g id="Слой_1-2" data-name="Слой 1"><path class="cls-1" d="M2.45,28.21H18.54a2.62,2.62,0,0,1,2.15.75,2.56,2.56,0,0,1,.48,1.71v1.41H0V30.68A2.78,2.78,0,0,1,.37,29a2.34,2.34,0,0,1,2.08-.78ZM18.54,29H2.45c-.81,0-1.21.16-1.4.43a2.18,2.18,0,0,0-.21,1.2v.58H20.33v-.58A1.84,1.84,0,0,0,20,29.5,1.89,1.89,0,0,0,18.54,29Z"/><path class="cls-1" d="M4.62,26.14H16.54a2.27,2.27,0,0,1,1.7.54,1.72,1.72,0,0,1,.44,1.27v1H2.29v-1a1.6,1.6,0,0,1,.65-1.36,2.79,2.79,0,0,1,1.67-.44Zm11.92.65H4.62a2.16,2.16,0,0,0-1.28.31,1,1,0,0,0-.37.82v.36H18v-.36a1.1,1.1,0,0,0-.25-.8,1.68,1.68,0,0,0-1.23-.34Z"/><path class="cls-1" d="M5.27,23.77h10.9v2.78H5V23.77Zm10.4.5H5.52V26H15.66V24.27Z"/><path class="cls-1" d="M11.54,13.19l2.95-2.93.29-.29.29.29L30.52,25.69l.3.3-.29.3-3,3-.29.29-.3-.3L11.54,13.78l-.29-.3.3-.29Zm3.24-2-2.36,2.34L27.26,28.36,29.64,26,14.78,11.15Z"/><path class="cls-1" d="M11.57,1.09l.68-.68L12.66,0l.41.41,5.77,5.77.41.41L18.84,7l-.68.68h0a5.48,5.48,0,0,1-1.36.77c-.69.29-1.42.42-1.73.11h0L10.46,3.8c-.32-.33-.19-.85.12-1.37a8.34,8.34,0,0,1,1-1.34Zm1.09.56-.26.26h0A6.87,6.87,0,0,0,11.58,3c-.06.09,0,.24.11.38l4,4.15c.07.08.22,0,.64-.17a4.67,4.67,0,0,0,1-.52h0l.26-.26L12.66,1.65Z"/><path class="cls-1" d="M8.39,3.5a2.91,2.91,0,0,1,1-.65,3,3,0,0,1,1.16-.21h.24l.16.16L16.13,8l.16.16v.24a3,3,0,0,1-.21,1.16,2.94,2.94,0,0,1-.65,1h0l-3.62,3.62h0a2.92,2.92,0,0,1-1,.65A3,3,0,0,1,9.68,15H9.44l-.16-.16-5.2-5.2L3.91,9.5V9.27A3,3,0,0,1,4.12,8.1a2.93,2.93,0,0,1,.65-1h0L8.39,3.5Zm1.42.43a1.76,1.76,0,0,0-.59.39h0L5.59,7.95h0a1.77,1.77,0,0,0-.39.59A1.81,1.81,0,0,0,5.08,9l4.84,4.84a1.79,1.79,0,0,0,.48-.12,1.76,1.76,0,0,0,.59-.39h0l3.62-3.62h0A1.77,1.77,0,0,0,15,9.14a1.82,1.82,0,0,0,.12-.48L10.29,3.82a1.8,1.8,0,0,0-.48.12Z"/><path class="cls-1" d="M3.81,5.49l3-3,.29-.29.29.29,1.21,1.2.3.3-.29.29-3,3-.29.29L5,7.28,3.81,6.08l-.3-.3.29-.29ZM7.07,3.41,4.69,5.78l.61.61L7.68,4l-.61-.61Z"/><path class="cls-1" d="M8.77,16.54l-.68.68-.41.41-.41-.41L1.5,11.45,1.08,11l.41-.41.68-.68h0a5.67,5.67,0,0,1,1.25-.78c.66-.31,1.35-.47,1.68-.14h0l4.76,4.8c.32.33.2.85-.11,1.38a8.38,8.38,0,0,1-1,1.34ZM7.67,16l.27-.27a6.9,6.9,0,0,0,.82-1.1c.05-.09.06-.2-.08-.34L4.54,10.09c-.11-.11-.5.07-.6.12a4.58,4.58,0,0,0-.93.56H3L2.73,11,7.67,16Z"/></g></g></svg>