<?xml version="1.0" encoding="utf-8"?>
<!-- Generator: Adobe Illustrator 16.0.0, SVG Export Plug-In . SVG Version: 6.00 Build 0)  -->
<!DOCTYPE svg PUBLIC "-//W3C//DTD SVG 1.1//EN" "http://www.w3.org/Graphics/SVG/1.1/DTD/svg11.dtd">
<svg xmlns="http://www.w3.org/2000/svg" id="bankruptcy" viewBox="0 0 31.78 31.8"><defs><style>.cls-1,.cls-2{fill:#3f3843;}.cls-2{fill-rule:evenodd;}</style></defs><title>Ресурс 2</title><g id="Слой_2" data-name="Слой 2"><g id="Слой_1-2" data-name="Слой 1"><polygon class="cls-1" points="19.56 15.43 19.56 1.24 1.24 1.24 0.9 25.42 17.07 25.42 15.84 26.66 0.62 26.66 0 26.66 0 26.04 0 0.62 0 0 0.62 0 20.18 0 20.8 0 20.8 0.62 20.8 16.68 19.56 15.43 19.56 15.43"/><path class="cls-2" d="M13,9.8c.39-2,1.49-2.84,2.57-2.84s2.18.89,2.57,2.84Z"/><path class="cls-2" d="M15.5,3.4A1.57,1.57,0,0,1,17,5a1.5,1.5,0,1,1-3,0A1.57,1.57,0,0,1,15.5,3.4Z"/><path class="cls-2" d="M2.68,9.8C3.07,7.83,4.17,7,5.25,7s2.18.89,2.57,2.84Z"/><path class="cls-2" d="M5.22,3.4A1.57,1.57,0,0,1,6.71,5a1.57,1.57,0,0,1-1.5,1.64A1.57,1.57,0,0,1,3.72,5,1.57,1.57,0,0,1,5.22,3.4Z"/><path class="cls-2" d="M7.82,9.8C8.21,7.83,9.3,7,10.39,7S12.56,7.85,13,9.8Z"/><path class="cls-2" d="M10.36,3.4A1.57,1.57,0,0,1,11.85,5a1.57,1.57,0,0,1-1.5,1.64A1.57,1.57,0,0,1,8.86,5a1.57,1.57,0,0,1,1.5-1.64Z"/><polygon class="cls-1" points="29.27 31.8 23.34 25.86 17.43 31.77 14.95 29.29 20.85 23.38 14.95 17.48 17.46 14.96 23.37 20.87 29.27 14.96 31.75 17.45 25.85 23.35 31.78 29.29 29.27 31.8 29.27 31.8"/></g></g></svg>