<?xml version="1.0" encoding="utf-8"?>
<!-- Generator: Adobe Illustrator 16.0.0, SVG Export Plug-In . SVG Version: 6.00 Build 0)  -->
<!DOCTYPE svg PUBLIC "-//W3C//DTD SVG 1.1//EN" "http://www.w3.org/Graphics/SVG/1.1/DTD/svg11.dtd">
<svg xmlns="http://www.w3.org/2000/svg" id="case" viewBox="0 0 153.6 153.97"><defs><style></style></defs><title>Ресурс 1</title><g id="Слой_2" data-name="Слой 2"><g id="Layer_1" data-name="Layer 1"><path class="cls-1" fill="#e49e3e" d="M146.3,154H7.3a7.3,7.3,0,0,1-7.3-7.3V35.3A7.3,7.3,0,0,1,7.3,28h139a7.3,7.3,0,0,1,7.3,7.3V146.68A7.3,7.3,0,0,1,146.3,154ZM7.3,31.61a3.7,3.7,0,0,0-3.7,3.7V146.68a3.7,3.7,0,0,0,3.7,3.7h139a3.7,3.7,0,0,0,3.7-3.7V35.3a3.7,3.7,0,0,0-3.7-3.7Z"/><path class="cls-1" fill="#000000" d="M113.11,102.85H89.43a1.8,1.8,0,0,1-1.8-1.8V87.88a2,2,0,0,0-2-2H68a2,2,0,0,0-2,2v13.17a1.8,1.8,0,0,1-1.8,1.8H40.48a7.4,7.4,0,0,1-3-.64l-33.2-15A7.34,7.34,0,0,1,0,80.57V35.31A7.31,7.31,0,0,1,7.29,28h139a7.31,7.31,0,0,1,7.29,7.31V80.57a7.34,7.34,0,0,1-4.28,6.65l-33.2,15A7.4,7.4,0,0,1,113.11,102.85Zm-21.88-3.6h21.88a3.76,3.76,0,0,0,1.53-.32l33.19-15A3.72,3.72,0,0,0,150,80.57V35.31a3.7,3.7,0,0,0-3.69-3.71H7.29A3.7,3.7,0,0,0,3.6,35.31V80.57a3.72,3.72,0,0,0,2.17,3.37L39,98.93a3.76,3.76,0,0,0,1.52.32H62.37V87.88A5.59,5.59,0,0,1,68,82.31H85.63a5.59,5.59,0,0,1,5.59,5.58Z"/><path class="cls-1" fill="#000000" d="M49,31.61H21.3a1.8,1.8,0,0,1-1.8-1.8V28.26c0-3,2.43-7.59,6.09-7.59H44.76c3.66,0,6.09,4.57,6.09,7.59v1.55A1.8,1.8,0,0,1,49,31.61ZM23.11,28H47.24c-.13-1.65-1.48-3.74-2.48-3.74H25.59C24.59,24.27,23.24,26.36,23.11,28Z"/><path class="cls-1" fill="#000000" d="M132.3,31.61H104.55a1.8,1.8,0,0,1-1.8-1.8V28.26c0-3,2.43-7.59,6.09-7.59H128c3.66,0,6.09,4.57,6.09,7.59v1.55A1.8,1.8,0,0,1,132.3,31.61ZM106.36,28h24.13c-.13-1.65-1.48-3.74-2.48-3.74H108.84C107.84,24.27,106.49,26.36,106.36,28Z"/><path class="cls-1" fill="#000000" d="M121.42,24.27h-6a1.8,1.8,0,0,1-1.8-1.8V13.36a.76.76,0,0,0-.76-.76H40.74a.76.76,0,0,0-.76.76v9.11a1.8,1.8,0,0,1-1.8,1.8h-6a1.8,1.8,0,0,1-1.8-1.8V6.86A6.87,6.87,0,0,1,37.24,0h79.13a6.87,6.87,0,0,1,6.86,6.86V22.47A1.8,1.8,0,0,1,121.42,24.27Zm-4.2-3.6h2.4V6.86a3.27,3.27,0,0,0-3.26-3.26H37.24A3.27,3.27,0,0,0,34,6.86V20.67h2.4V13.36A4.37,4.37,0,0,1,40.74,9h72.13a4.37,4.37,0,0,1,4.36,4.36Z"/><path class="cls-1" fill="#000000" d="M85.63,119.82H68a5.6,5.6,0,0,1-5.59-5.59V87.88A5.59,5.59,0,0,1,68,82.31H85.63a5.59,5.59,0,0,1,5.59,5.58v26.34A5.6,5.6,0,0,1,85.63,119.82ZM68,85.9a2,2,0,0,0-2,2v26.34a2,2,0,0,0,2,2H85.63a2,2,0,0,0,2-2V87.88a2,2,0,0,0-2-2Z"/><path class="cls-1" d="M89.42,109.35H64.17a1.8,1.8,0,0,1-1.8-1.8V95.17a1.8,1.8,0,0,1,1.8-1.8H89.42a1.8,1.8,0,0,1,1.8,1.8v12.38A1.8,1.8,0,0,1,89.42,109.35ZM66,105.75H87.63V97H66Z"/></g></g></svg>