<svg xmlns="http://www.w3.org/2000/svg" viewBox="0 0 260 259.91">
  <defs>
    <style>
      .cls-1{fill:none;stroke-miterlimit:10;stroke-width:4px;fill-rule:evenodd;stroke:#fff}
    </style>
  </defs>
  <g id="Слой_2" data-name="Слой 2">
    <g id="Layer_1" data-name="Layer 1">
      <path class="cls-1"  stroke="#ffffff" fill="none" stroke-miterlimit="10" stroke-width="7" fill-rule="evenodd" d="M226.35 150.17l-7-10.6a2.34 2.34 0 0 0-2.29-1l-14.25 1.68a6.89 6.89 0 0 0-5.63 4.88c-2.92 22.57-3.74 23.56.31 45.1.68 3.62 5 6 8.7 6.51l2 .27 1.67 51.88c.13 4.14 4.32 9 8.1 9 2.53 0 5.7-1 7-2.64a1.81 1.81 0 0 1 2.81 0c1.29 1.62 4.46 2.64 7 2.64 3.78 0 8-4.87 8.1-9l1.64-51.89 2-.27c3.65-.48 8-2.89 8.7-6.51 4-21.54 3.22-22.53.31-45.1a6.89 6.89 0 0 0-5.63-4.88l-14.25-1.68a2.34 2.34 0 0 0-2.29 1l-7 10.6zM162.09 150.17l-7-10.6a2.34 2.34 0 0 0-2.28-1l-14.25 1.68a6.89 6.89 0 0 0-5.63 4.88c-2.92 22.57-3.74 23.56.31 45.1.68 3.62 5 6 8.7 6.51l2 .27 1.67 51.88c.13 4.14 4.32 9 8.1 9 2.53 0 5.7-1 7-2.64a1.81 1.81 0 0 1 2.81 0c1.29 1.62 4.46 2.64 7 2.64 3.78 0 8-4.87 8.1-9l1.63-51.89 2-.27a11.83 11.83 0 0 0 7.55-4c-.09-.33-.17-.68-.23-1-3.91-20.8-3.54-23.57-1.11-41.93.31-2.37.64-4.86.74-5.64l.19-1c.07-.26.15-.54.25-.82a6.46 6.46 0 0 0-4-2.07l-14.25-1.68a2.34 2.34 0 0 0-2.28 1l-7 10.6zM162.37 102.83c7.34.15 13.19 6.52 13 14.23s-6.26 16.94-13.6 16.79-13.13-9.6-13-17.32 6.2-13.85 13.55-13.7zM98.14 102.83c7.34.15 13.18 6.52 13 14.23s-6.26 16.94-13.6 16.79-13.13-9.6-13-17.32 6.2-13.85 13.55-13.7zM97.89 150.17l-7-10.6a2.34 2.34 0 0 0-2.29-1l-14.25 1.68a6.89 6.89 0 0 0-5.64 4.88c-2.92 22.57-3.74 23.56.31 45.1.68 3.62 5 6 8.7 6.51l2 .27 1.67 51.88c.13 4.14 4.32 9 8.1 9 2.53 0 5.7-1 7-2.64a1.81 1.81 0 0 1 2.81 0c1.29 1.62 4.46 2.64 7 2.64 3.78 0 8-4.87 8.1-9L116 197l2-.27a11.83 11.83 0 0 0 7.55-4q-.13-.5-.23-1c-3.91-20.8-3.54-23.57-1.12-41.93.31-2.37.64-4.86.74-5.64l.19-1c.07-.26.15-.54.25-.82a6.46 6.46 0 0 0-4-2.07l-14.25-1.68a2.34 2.34 0 0 0-2.29 1l-7 10.6zM33.65 150.17l-7-10.6a2.34 2.34 0 0 0-2.28-1l-14.27 1.69a6.89 6.89 0 0 0-5.64 4.88c-2.92 22.57-3.74 23.56.31 45.1.68 3.62 5 6 8.7 6.51l2 .27 1.67 51.88c.13 4.14 4.32 9 8.1 9 2.53 0 5.7-1 7-2.64a1.81 1.81 0 0 1 2.81 0c1.29 1.62 4.46 2.64 7 2.64 3.78 0 8-4.87 8.1-9l1.67-51.9 2-.27a11.84 11.84 0 0 0 7.55-4c-.09-.34-.17-.68-.23-1-3.91-20.8-3.54-23.57-1.12-41.93.31-2.37.64-4.86.74-5.64l.19-1c.07-.26.15-.53.25-.82a6.47 6.47 0 0 0-4-2.07L43 138.58a2.34 2.34 0 0 0-2.28 1l-7 10.6zM33.9 102.83c7.34.15 13.18 6.52 13 14.23s-6.21 16.94-13.55 16.8-13.13-9.6-13-17.32 6.2-13.85 13.55-13.7zM226.6 102.83c7.34.15 13.19 6.52 13 14.23s-6.22 16.94-13.6 16.8-13.13-9.6-13-17.32 6.21-13.85 13.55-13.7z"/>
      <path d="M248 92c-10.54-10.73-41.28-10-53.15-1.81l.11.62a4 4 0 1 1-7.87 1.38q-.13-.74-.27-1.48c-11.42-9-41.23-8.74-52.84-.34v42.84a14.47 14.47 0 0 0-4 2.42 14.54 14.54 0 0 0-4-2.42V90.49c-11.47-8.44-41.25-8.75-52.82.14q-.15.79-.29 1.59A4 4 0 1 1 65 90.85l.1-.55C53.34 82 22.55 81.27 12 92l-.3.82a4 4 0 1 1-7.53-2.66C22.61 38.4 71.05 13.16 126 11.54V6a4 4 0 1 1 8 0v5.54c55 1.63 103.39 26.86 121.85 78.67a4 4 0 0 1-7.53 2.66L248 92z" stroke="#e49e3e" fill="none" stroke-miterlimit="10" stroke-width="7" fill-rule="evenodd"/>
    </g>
  </g>
</svg>