<svg xmlns="http://www.w3.org/2000/svg" id="consultancy" viewBox="0 0 31.46 28.12"><defs><style>.cls-1{fill:#fff;stroke:#000;stroke-miterlimit:10;}</style></defs><title>Ресурс 1</title><g id="Слой_2" data-name="Слой 2"><g id="Слой_1-2" data-name="Слой 1"><path class="cls-1" d="M9.52,10a.92.92,0,0,0-.65.27h0a.93.93,0,0,0,1.31,1.31h0a.93.93,0,0,0,0-1.31h0A.92.92,0,0,0,9.52,10Zm-1-.08a1.42,1.42,0,0,1,2,0h0a1.42,1.42,0,0,1,0,2h0a1.42,1.42,0,0,1-2,0h0a1.42,1.42,0,0,1,0-2Z"/><path class="cls-1" d="M15.75,10a.93.93,0,0,0-.65,1.58h0a.93.93,0,0,0,1.31-1.31h0a.92.92,0,0,0-.65-.27Zm-1-.08a1.42,1.42,0,0,1,2,0h0a1.42,1.42,0,0,1,0,2h0a1.42,1.42,0,0,1-2,0h0a1.42,1.42,0,0,1,0-2Z"/><path class="cls-1" d="M22,10a.92.92,0,0,0-.65.27h0a.93.93,0,0,0,0,1.31h0A.92.92,0,1,0,22,10Zm-1-.08h0a1.43,1.43,0,0,1,2,2h0a1.42,1.42,0,0,1-2,0h0a1.42,1.42,0,0,1,0-2Z"/><path class="cls-1" d="M15.75,1.34A18.32,18.32,0,0,0,5.53,4.22C3,6,1.38,8.37,1.38,11a6.93,6.93,0,0,0,1,3.48,10.12,10.12,0,0,0,2.83,3.05l.26.19-.11.3L2.73,24.74,10,20l.16-.1.18.05A19.73,19.73,0,0,0,13,20.5a21.17,21.17,0,0,0,2.79.18A18.32,18.32,0,0,0,26,17.8C28.54,16,30.12,13.65,30.12,11S28.54,6,26,4.22A18.32,18.32,0,0,0,15.75,1.34ZM5.06,3.53A19.16,19.16,0,0,1,15.75.5a19.16,19.16,0,0,1,10.69,3C29.23,5.43,31,8.08,31,11s-1.73,5.58-4.52,7.48a19.16,19.16,0,0,1-10.69,3,22.06,22.06,0,0,1-2.9-.19,20.6,20.6,0,0,1-2.6-.52L2.1,26.15,1,26.86l.46-1.21L4.42,18a10.8,10.8,0,0,1-2.8-3.12A7.75,7.75,0,0,1,.54,11c0-2.93,1.73-5.58,4.51-7.48Z"/></g></g></svg>