<svg xmlns="http://www.w3.org/2000/svg" id="corporate" viewBox="0 0 149.44 150.78"><defs><style>.cls-1{fill:#707070;}</style></defs><title>Ресурс 1</title><g id="Слой_2" data-name="Слой 2"><g id="Layer_1" data-name="Layer 1"><path class="cls-1" d="M122.12,150.18H28.05a1.8,1.8,0,0,1-1.8-1.8V1.8A1.8,1.8,0,0,1,28.05,0H98a25.9,25.9,0,0,1,25.88,25.88v88.27a1.8,1.8,0,0,1-3.07,1.27L116.39,111a3.53,3.53,0,0,0-2.17-1h-.29a3.45,3.45,0,0,0-2.47,1l-1.84,1.83a3.51,3.51,0,0,0-1,2.78,3.54,3.54,0,0,0,1,2.17l13.74,13.74a1.8,1.8,0,0,1,.53,1.27v15.63A1.8,1.8,0,0,1,122.12,150.18Zm-92.27-3.6h90.47V133.5l-13.23-13.23a7.11,7.11,0,0,1,0-10l1.84-1.83a7.08,7.08,0,0,1,5.66-2.06,7.2,7.2,0,0,1,4.37,2.07l1.38,1.38V25.88A22.3,22.3,0,0,0,98,3.6H29.85Z"/><path class="cls-1" d="M27.95,35.37H1.8A1.8,1.8,0,0,1,0,33.57V21.28A21.3,21.3,0,0,1,21.28,0h6.67a1.8,1.8,0,0,1,1.8,1.8V33.57A1.8,1.8,0,0,1,27.95,35.37ZM3.6,31.77H26.15V3.6H21.28A17.7,17.7,0,0,0,3.6,21.28Z"/><path class="cls-1" d="M106.81,27.26H43.37a1.8,1.8,0,0,1,0-3.6h63.45a1.8,1.8,0,1,1,0,3.6Z"/><path class="cls-1" d="M106.81,41.85H43.37a1.8,1.8,0,0,1,0-3.6h63.45a1.8,1.8,0,1,1,0,3.6Z"/><path class="cls-1" d="M106.81,132.77H43.37a1.8,1.8,0,0,1,0-3.6h63.45a1.8,1.8,0,0,1,0,3.6Z"/><path class="cls-1" d="M140.54,150.78a7,7,0,0,1-5-2.07l-28.44-28.44a7.11,7.11,0,0,1,0-10l1.84-1.83a7.08,7.08,0,0,1,5.66-2.06,7.2,7.2,0,0,1,4.37,2.07l28.44,28.44a7.09,7.09,0,0,1,0,10l-1.81,1.83A7,7,0,0,1,140.54,150.78Zm-26.61-40.85a3.45,3.45,0,0,0-2.47,1l-1.84,1.83a3.51,3.51,0,0,0-1,2.78,3.54,3.54,0,0,0,1,2.17l28.43,28.43a3.58,3.58,0,0,0,4.92,0l1.81-1.83a3.49,3.49,0,0,0,0-4.93L116.39,111a3.53,3.53,0,0,0-2.17-1Z"/><path class="cls-1" d="M78.9,115.77a34.41,34.41,0,1,1,19.24-5.88A34.21,34.21,0,0,1,78.9,115.77Zm0-65.28a30.83,30.83,0,1,0,21.8,9A30.67,30.67,0,0,0,78.92,50.48Z"/><path class="cls-1" d="M78.9,108.44a27.12,27.12,0,1,1,19.17-7.94A26.93,26.93,0,0,1,78.9,108.44Zm0-50.63A23.52,23.52,0,1,0,95.53,64.7,23.36,23.36,0,0,0,78.9,57.81Z"/><path class="cls-1" d="M106.83,117.53a1.8,1.8,0,0,1-1.27-.53l-8.42-8.42a1.8,1.8,0,0,1,.27-2.77,25.8,25.8,0,0,0,3.88-3.2,26.07,26.07,0,0,0,3.21-3.89,1.8,1.8,0,0,1,2.77-.27l8.42,8.42a1.8,1.8,0,0,1-1.43,3.07,3.52,3.52,0,0,0-2.8,1l-1.82,1.82a3.49,3.49,0,0,0-1,2.57,1.78,1.78,0,0,1,0,.38,1.8,1.8,0,0,1-1.8,1.8Zm-5.66-10,4.58,4.58a7.08,7.08,0,0,1,1.34-1.86l1.82-1.82a7.16,7.16,0,0,1,1.88-1.35l-4.58-4.58a30.25,30.25,0,0,1-2.37,2.67A29.89,29.89,0,0,1,101.16,107.53Z"/></g></g></svg>