<?xml version="1.0" encoding="utf-8"?>
<!-- Generator: Adobe Illustrator 16.0.0, SVG Export Plug-In . SVG Version: 6.00 Build 0)  -->
<!DOCTYPE svg PUBLIC "-//W3C//DTD SVG 1.1//EN" "http://www.w3.org/Graphics/SVG/1.1/DTD/svg11.dtd">
<svg xmlns="http://www.w3.org/2000/svg" viewBox="0 0 110.48 147.98"><defs><style>.cls-1{fill:#fff;}</style></defs><title>Ресурс 2</title><g id="Слой_2" data-name="Слой 2"><g id="Слой_1-2" data-name="Слой 1"><path d="M0,50.05Q0,28.75,0,7.44A11.84,11.84,0,0,1,.17,5.15,6.32,6.32,0,0,1,6.27,0c.34,0,.67,0,1,0H80.84A2.77,2.77,0,0,1,83,.92l.51.51L109.08,27l.61.61a2.67,2.67,0,0,1,.78,1.81c0,.43,0,.86,0,1.3q0,31.09,0,62.19c0,.34,0,.67,0,1a4.35,4.35,0,0,1-2.14,3.84l-1.71,1.06-9.9,6.15a11.21,11.21,0,0,1-12.62,0c-2.45-1.51-4.89-3-7.34-4.55-.33-.2-.65-.41-1-.59a6,6,0,0,0-5.92,0c-.34.18-.66.39-1,.59l-7.58,4.7a11.27,11.27,0,0,1-6.86,1.71,11,11,0,0,1-5.14-1.68l-7.59-4.7c-.41-.25-.81-.52-1.24-.73a6,6,0,0,0-5.54,0c-.43.21-.83.47-1.24.73l-7.58,4.7a11.22,11.22,0,0,1-6.58,1.7,11.34,11.34,0,0,1-5.55-1.79l-7.58-4.7c-1.3-.81-2.59-1.65-3.92-2.42A4.54,4.54,0,0,1,0,93.53c0-.38,0-.77,0-1.15Q0,71.21,0,50.05Zm5-.4Q5,70.59,5,91.54c0,.43,0,.86,0,1.3A1.26,1.26,0,0,0,5.68,94l.73.46,9.78,6.07a12.92,12.92,0,0,0,1.12.65,6,6,0,0,0,5.54,0c.43-.21.83-.47,1.24-.73l7.46-4.63a11.32,11.32,0,0,1,12.13-.05L50.41,100c.61.38,1.21.78,1.85,1.12a6,6,0,0,0,5.92,0c.38-.2.75-.43,1.11-.66l7.46-4.63a11.33,11.33,0,0,1,12.13,0c2.61,1.62,5.23,3.22,7.82,4.86a6.35,6.35,0,0,0,7.3,0c3.42-2.14,6.85-4.25,10.27-6.38l.49-.31a1.33,1.33,0,0,0,.69-1.32c0-.19,0-.38,0-.58q0-29.15,0-58.3a8.38,8.38,0,0,0,0-1,1,1,0,0,0-.92-.94,12.84,12.84,0,0,0-1.29,0h-17c-.48,0-1,0-1.44,0a6.3,6.3,0,0,1-6-4.91,9.53,9.53,0,0,1-.19-2.14q0-8.78,0-17.56a12.45,12.45,0,0,0,0-1.29,1,1,0,0,0-.94-.92,10.15,10.15,0,0,0-1.15,0H7.38c-.29,0-.58,0-.86,0-1,.08-1.39.48-1.46,1.43,0,.48,0,1,0,1.44Q5,28.78,5,49.65ZM92.13,26.89h6.34a6.89,6.89,0,0,0,1.15-.05,1,1,0,0,0,.6-1.64,5.38,5.38,0,0,0-.49-.53L85.77,10.73a4.09,4.09,0,0,0-.65-.57,1,1,0,0,0-1.42.48,3.14,3.14,0,0,0-.15,1c0,4.42,0,8.83,0,13.25,0,1.61.44,2,2.09,2C87.81,26.91,90,26.89,92.13,26.89Z"/><path d="M55.29,148H7.35a11.09,11.09,0,0,1-2.29-.15,6.35,6.35,0,0,1-5-5.9c0-.38,0-.77,0-1.15q0-12.6,0-25.19a6.85,6.85,0,0,1,.17-1.71,4.19,4.19,0,0,1,5.93-2.73,11.84,11.84,0,0,1,1.12.65l9.29,5.77a6.63,6.63,0,0,0,3.08,1.11,6.42,6.42,0,0,0,4-1.06c2.68-1.68,5.38-3.34,8.07-5a11.26,11.26,0,0,1,3.28-1.44,10.88,10.88,0,0,1,8.45,1.25c1.56.93,3.1,1.92,4.65,2.88,1.22.76,2.45,1.5,3.67,2.28a6.17,6.17,0,0,0,7.16,0c2.67-1.7,5.38-3.34,8.07-5a11.05,11.05,0,0,1,11.85,0l7.58,4.7c.37.23.73.47,1.11.67a6,6,0,0,0,5.79,0c.38-.19.74-.44,1.11-.67l9.05-5.61a5.6,5.6,0,0,1,2-.88,4.24,4.24,0,0,1,5.09,3.82c0,.33,0,.67,0,1q0,12.67,0,25.34a9.78,9.78,0,0,1-.21,2.14,6.29,6.29,0,0,1-5.88,4.86c-.53,0-1.06,0-1.58,0Zm-.19-5h48.22c1.74,0,2.13-.39,2.13-2.11q0-11,0-22a5.2,5.2,0,0,0-.07-1,.92.92,0,0,0-1.2-.7,5.42,5.42,0,0,0-1,.54c-2.29,1.41-4.55,2.86-6.85,4.24a10.83,10.83,0,0,1-11.85,0c-1.61-1-3.18-2-4.77-3-1.26-.78-2.52-1.59-3.8-2.34a5.7,5.7,0,0,0-4.85-.58,8.78,8.78,0,0,0-1.8.88c-2.66,1.63-5.29,3.31-8,4.92a11,11,0,0,1-12.11,0c-1.56-.94-3.1-1.92-4.65-2.88-1.26-.78-2.51-1.6-3.8-2.34a5.85,5.85,0,0,0-6.16,0c-.5.28-1,.6-1.47.9-2.4,1.49-4.8,3-7.22,4.47A10.82,10.82,0,0,1,18,123.49a11.52,11.52,0,0,1-4-1.6l-6.6-4.1a7.23,7.23,0,0,0-1-.57,1,1,0,0,0-1.37.8,8.91,8.91,0,0,0,0,1.15q0,10.72,0,21.45c0,.34,0,.67,0,1A1.33,1.33,0,0,0,6.31,143a11.75,11.75,0,0,0,1.58.05Z"/><path class="cls-1" d="M5,49.65Q5,28.78,5,7.9c0-.48,0-1,0-1.44.07-.94.49-1.35,1.46-1.43.29,0,.58,0,.86,0H76.47a10.15,10.15,0,0,1,1.15,0,1,1,0,0,1,.94.92,12.45,12.45,0,0,1,0,1.29q0,8.78,0,17.56A9.53,9.53,0,0,0,78.79,27a6.3,6.3,0,0,0,6,4.91c.48,0,1,0,1.44,0h17a12.84,12.84,0,0,1,1.29,0,1,1,0,0,1,.92.94,8.38,8.38,0,0,1,0,1q0,29.15,0,58.3c0,.19,0,.38,0,.58a1.33,1.33,0,0,1-.69,1.32l-.49.31c-3.42,2.12-6.85,4.24-10.27,6.38a6.35,6.35,0,0,1-7.3,0c-2.59-1.64-5.21-3.25-7.82-4.86a11.33,11.33,0,0,0-12.13,0l-7.46,4.63c-.37.23-.73.46-1.11.66a6,6,0,0,1-5.92,0c-.63-.34-1.23-.74-1.85-1.12l-6.73-4.17a11.32,11.32,0,0,0-12.13.05l-7.46,4.63c-.41.25-.81.52-1.24.73a6,6,0,0,1-5.54,0,12.92,12.92,0,0,1-1.12-.65L6.41,94.49,5.68,94A1.26,1.26,0,0,1,5,92.83c0-.43,0-.86,0-1.3Q5,70.59,5,49.65Zm98.38,42.81V90.81q0-27.5,0-55c0-.34,0-.67,0-1a7.64,7.64,0,0,0-.18-.87H86.47c-.58,0-1.15,0-1.73,0a8.38,8.38,0,0,1-8-6.68,12,12,0,0,1-.21-2.43c0-5.37,0-10.75,0-16.12a2.31,2.31,0,0,0-.26-1.62l-1.66,0H9c-.34,0-.67,0-1,0a6.33,6.33,0,0,0-.77.16C7,8.66,7,91.37,7.2,92.55c.21.14.44.31.68.46l9.54,5.92c.24.15.49.3.75.43a4.06,4.06,0,0,0,3.87,0c.38-.2.75-.43,1.11-.66l7.46-4.62a13.27,13.27,0,0,1,14.05,0c2.53,1.56,5.06,3.13,7.59,4.7.33.2.65.41,1,.59a4.08,4.08,0,0,0,4,0c.34-.18.66-.39,1-.59,2.53-1.57,5.05-3.14,7.59-4.7a13.28,13.28,0,0,1,14.06,0l7.34,4.55c.41.25.81.51,1.24.73a4,4,0,0,0,3.87,0c.3-.15.59-.33.87-.5l9.17-5.69C102.68,93,103,92.75,103.42,92.46Z"/><path class="cls-1" d="M92.13,26.89c-2.16,0-4.32,0-6.48,0-1.65,0-2.08-.41-2.09-2,0-4.42,0-8.83,0-13.25a3.14,3.14,0,0,1,.15-1,1,1,0,0,1,1.42-.48,4.09,4.09,0,0,1,.65.57L99.72,24.68a5.38,5.38,0,0,1,.49.53,1,1,0,0,1-.6,1.64,6.89,6.89,0,0,1-1.15.05ZM85.78,13.76a3.92,3.92,0,0,0-.16.74q0,4.74,0,9.49a3.32,3.32,0,0,0,.17.75,1.68,1.68,0,0,0,.36.11H96.2c.15,0,.29-.13.57-.26L86.32,14.15A4.61,4.61,0,0,0,85.78,13.76Z"/><path class="cls-1" d="M55.1,143H7.89A11.75,11.75,0,0,1,6.31,143a1.33,1.33,0,0,1-1.25-1.34c0-.33,0-.67,0-1q0-10.72,0-21.45a8.91,8.91,0,0,1,0-1.15,1,1,0,0,1,1.37-.8,7.23,7.23,0,0,1,1,.57l6.6,4.1a11.52,11.52,0,0,0,4,1.6A10.82,10.82,0,0,0,25.9,122c2.42-1.47,4.81-3,7.22-4.47.49-.3,1-.62,1.47-.9a5.85,5.85,0,0,1,6.16,0c1.29.74,2.53,1.56,3.8,2.34,1.55,1,3.08,1.94,4.65,2.88a11,11,0,0,0,12.11,0c2.67-1.61,5.3-3.29,8-4.92a8.78,8.78,0,0,1,1.8-.88,5.7,5.7,0,0,1,4.85.58c1.28.75,2.53,1.56,3.8,2.34,1.59,1,3.16,2,4.77,3a10.83,10.83,0,0,0,11.85,0c2.3-1.38,4.57-2.83,6.85-4.24a5.42,5.42,0,0,1,1-.54.92.92,0,0,1,1.2.7,5.2,5.2,0,0,1,.07,1q0,11,0,22c0,1.72-.39,2.08-2.13,2.11H55.1ZM7.23,140.84a1.91,1.91,0,0,0,.45.13h95.15a1.4,1.4,0,0,0,.39-.11,2.25,2.25,0,0,0,.2-1.41c0-2.3,0-4.61,0-6.91q0-5.54,0-11.08a2.07,2.07,0,0,0-.21-1.31c-.41.23-.78.43-1.14.65-1.59,1-3.17,2-4.77,3a12.86,12.86,0,0,1-9,1.81,13.32,13.32,0,0,1-4.94-1.88L75.8,119c-.37-.23-.73-.46-1.11-.66a3.81,3.81,0,0,0-3.72,0c-.38.2-.75.43-1.12.66l-7.58,4.71A12.9,12.9,0,0,1,57,125.55a13.32,13.32,0,0,1-9.07-2c-2.59-1.64-5.23-3.22-7.82-4.87a4.25,4.25,0,0,0-5,0c-1.77,1.14-3.58,2.24-5.37,3.35-1.06.66-2.11,1.34-3.19,2a12.76,12.76,0,0,1-8.17,1.65,13.24,13.24,0,0,1-5.24-1.87c-1.76-1.08-3.5-2.18-5.26-3.25a5,5,0,0,0-.85-.31c0,6.8,0,13.47,0,20.13A2.2,2.2,0,0,0,7.23,140.84Z"/><path d="M85.78,13.76a4.61,4.61,0,0,1,.54.39L96.78,24.59c-.28.13-.42.26-.57.26H86.15a1.68,1.68,0,0,1-.36-.11,3.32,3.32,0,0,1-.17-.75q0-4.74,0-9.49A3.92,3.92,0,0,1,85.78,13.76Z"/><path class="cls-1" d="M55.25,55.08H25.6c-.58,0-1.15,0-1.73,0a4.47,4.47,0,0,1-4.23-4.45A4.52,4.52,0,0,1,23.93,46c.29,0,.58,0,.86,0H85.68a6.22,6.22,0,0,1,2.13.27,4.52,4.52,0,0,1,3,4.73,4.44,4.44,0,0,1-4,4c-.62.06-1.25.05-1.87.05ZM55.1,53H85a10,10,0,0,0,1.44,0,3.27,3.27,0,0,0,1.21-.39,2.37,2.37,0,0,0,1-2.62,2.41,2.41,0,0,0-2.11-1.89,14,14,0,0,0-1.58,0H25.16a8.83,8.83,0,0,0-1.44.05,2.51,2.51,0,0,0-2.06,2.44A2.45,2.45,0,0,0,23.86,53a14.77,14.77,0,0,0,1.58,0Z"/><path class="cls-1" d="M55.23,67.25H85.17c.48,0,1,0,1.44,0a4.51,4.51,0,0,1,4.25,4.43,4.58,4.58,0,0,1-4,4.55,9.59,9.59,0,0,1-1.15,0H24.82A7.59,7.59,0,0,1,23,76.09a4.49,4.49,0,0,1,1-8.83c.43,0,.86,0,1.3,0Zm.13,2H25.41a11.85,11.85,0,0,0-1.44,0,3,3,0,0,0-1.08.32,2.39,2.39,0,0,0-1.17,2.57,2.45,2.45,0,0,0,2,2,7.51,7.51,0,0,0,1.15,0H85.65a7.51,7.51,0,0,0,1,0,2.5,2.5,0,0,0,2.16-2.49,2.45,2.45,0,0,0-2.23-2.41c-.48,0-1,0-1.44,0Z"/><path d="M55.1,53H25.45a14.77,14.77,0,0,1-1.58,0,2.45,2.45,0,0,1-2.2-2.44,2.51,2.51,0,0,1,2.06-2.44,8.83,8.83,0,0,1,1.44-.05H85a14,14,0,0,1,1.58,0A2.41,2.41,0,0,1,88.73,50a2.37,2.37,0,0,1-1,2.62,3.27,3.27,0,0,1-1.21.39A10,10,0,0,1,85,53Z"/><path d="M55.36,69.29h29.8c.48,0,1,0,1.44,0a2.45,2.45,0,0,1,2.23,2.41,2.5,2.5,0,0,1-2.16,2.49,7.51,7.51,0,0,1-1,0H24.9a7.51,7.51,0,0,1-1.15,0,2.45,2.45,0,0,1-2-2,2.39,2.39,0,0,1,1.17-2.57A3,3,0,0,1,24,69.32a11.85,11.85,0,0,1,1.44,0Z"/></g></g></svg>