<svg xmlns="http://www.w3.org/2000/svg" id="deal" viewBox="0 0 33.76 24.34"><defs><style>.cls-1{fill:none;stroke:#000;stroke-miterlimit:10;}</style></defs><title>Ресурс 1</title><g id="Слой_2" data-name="Слой 2"><g id="Слой_1-2" data-name="Слой 1"><path class="cls-1" d="M4.25,9.65h0a1.29,1.29,0,0,1-1.53,2.09h0A1.29,1.29,0,0,1,2.44,10l0,0h0a1.29,1.29,0,0,1,1.79-.28Zm-.3.42a.77.77,0,0,0-1.07.18h0a.77.77,0,0,0,.19,1.07h0a.77.77,0,0,0,.88-1.27Z"/><path class="cls-1" d="M10.69,4.82,6.6,1.91,2.22,8.07a4.19,4.19,0,0,0-.84,2.66,2.85,2.85,0,0,0,1.27,2l1.6,1.14,6.44-9ZM6.75,1l4.79,3.41.35.25L11.65,5,4.7,14.72l-.25.35-.35-.25-2-1.39h0A3.68,3.68,0,0,1,.52,10.81a5,5,0,0,1,1-3.23h0L6.15,1.05,6.4.7,6.75,1Z"/><path class="cls-1" d="M15.64,6.74,12.3,14.28v0a.86.86,0,0,0-.13.61.25.25,0,0,0,.12.14.67.67,0,0,0,.35.07,2.92,2.92,0,0,0,1.73-.89h0a6.47,6.47,0,0,0,1.53-2.29,6.49,6.49,0,0,0,.54-2.72l0-.29.26-.13a3.76,3.76,0,0,1,2.08-.25h0a1.28,1.28,0,0,1,.56.25.68.68,0,0,1,.25.7,1.3,1.3,0,0,1-.43.66,20.16,20.16,0,0,0,4.21,4.26c.88.73,1.75,1.46,2.51,2.23l-.61.62c-.74-.73-1.59-1.45-2.46-2.17a19.13,19.13,0,0,1-4.59-4.81L18,9.93l.31-.23a2.32,2.32,0,0,0,.34-.28l-.08,0h0a2.83,2.83,0,0,0-1.27.08,7.75,7.75,0,0,1-.62,2.78,7.35,7.35,0,0,1-1.75,2.6h0A3.76,3.76,0,0,1,12.64,16a1.51,1.51,0,0,1-.8-.18,1.1,1.1,0,0,1-.51-.63,1.67,1.67,0,0,1,.18-1.28l3.33-7.51.79.35Z"/><path class="cls-1" d="M11.75,17l0,0h0a1.39,1.39,0,0,1,.4,1.1,2.11,2.11,0,0,1-.74,1.29h0l0,0h0a2.38,2.38,0,0,1-1.27.69h0a1.35,1.35,0,0,1-1.19-.46,1.38,1.38,0,0,1-.45-1.08,2.21,2.21,0,0,1,.81-1.37,2.21,2.21,0,0,1,1.41-.74,1.38,1.38,0,0,1,1.05.5Zm-.49.49h0a.75.75,0,0,0-.54-.29,1.6,1.6,0,0,0-.95.55,1.6,1.6,0,0,0-.6.92.74.74,0,0,0,.26.55.69.69,0,0,0,.6.25h0a1.74,1.74,0,0,0,.89-.51l0,0a1.47,1.47,0,0,0,.53-.86h0a.72.72,0,0,0-.22-.56Z"/><path class="cls-1" d="M13.84,18.43h0a1.3,1.3,0,0,1,.32,1.24,3.29,3.29,0,0,1-1,1.55h0l-.05.05h0a3.8,3.8,0,0,1-1.54,1,1.29,1.29,0,0,1-1.34-.36,1.27,1.27,0,0,1-.37-1.21h0A3.48,3.48,0,0,1,11,19a3.48,3.48,0,0,1,1.7-1,1.27,1.27,0,0,1,1.19.44Zm-.5.48h0a.63.63,0,0,0-.57-.23,2.89,2.89,0,0,0-1.33.86,2.89,2.89,0,0,0-.93,1.28h0a.62.62,0,0,0,.2.58.64.64,0,0,0,.67.17,3.17,3.17,0,0,0,1.24-.8l.05-.05a2.66,2.66,0,0,0,.84-1.2.64.64,0,0,0-.15-.61Z"/><path class="cls-1" d="M13.95,20.51a1.44,1.44,0,0,1,1,.42,1.42,1.42,0,0,1,0,2,1.44,1.44,0,0,1-2,0,1.43,1.43,0,0,1,1-2.44Zm.52.91a.75.75,0,0,0-1,0,.73.73,0,0,0,0,1,.75.75,0,0,0,1,0,.73.73,0,0,0,0-1Z"/><path class="cls-1" d="M8.38,15.3a1.43,1.43,0,1,1-1,2.44,1.42,1.42,0,0,1,0-2,1.44,1.44,0,0,1,1-.42Zm.52.91a.75.75,0,0,0-1,0,.73.73,0,0,0,0,1,.75.75,0,0,0,1,0,.73.73,0,0,0,0-1Z"/><path class="cls-1" d="M20.82,22h0l0,0-3.79-3.71.61-.62L22,21.88a2,2,0,0,0,.45.1,1.55,1.55,0,0,0,.95-.18A1.48,1.48,0,0,0,24,21a2.2,2.2,0,0,0,.13-.51l-4.06-3.7.59-.64L24.92,20a1.59,1.59,0,0,0,.75-.3,1.34,1.34,0,0,0,.47-.59,1.15,1.15,0,0,0,0-.76,2.38,2.38,0,0,0-.82-1.1L24.92,17l.41-.34a5.42,5.42,0,0,0,.77-.82,7.2,7.2,0,0,0,.68-1,4,4,0,0,0,.48-1.42,1.33,1.33,0,0,0-.19-.9l.71-.5a2.17,2.17,0,0,1,.34,1.47,4.86,4.86,0,0,1-.57,1.75,8.07,8.07,0,0,1-.77,1.17,7.24,7.24,0,0,1-.54.61A2.92,2.92,0,0,1,27,18.15a2,2,0,0,1,0,1.33,2.22,2.22,0,0,1-.76,1,2.46,2.46,0,0,1-1.2.46,3,3,0,0,1-.14.45,2.35,2.35,0,0,1-1,1.19,2.4,2.4,0,0,1-1.47.29,2.89,2.89,0,0,1-.75-.19l-.08,0,0,0a2.3,2.3,0,0,1-1.29,1,2.82,2.82,0,0,1-1.82-.05l-.22-.09-.08,0L18,23.37l-.21-.24a2.48,2.48,0,0,1-1.6.71h0a2.38,2.38,0,0,1-1.45-.38,2.27,2.27,0,0,1-.7.12,1.86,1.86,0,0,1-.88-.2,1.57,1.57,0,0,1-.69-.7,1.82,1.82,0,0,1-.1-.26,2.43,2.43,0,0,1-.93.2,1.85,1.85,0,0,1-1.09-.34,1.82,1.82,0,0,1-.66-.89,2.11,2.11,0,0,1-.1-.86l-.16,0a1.86,1.86,0,0,1-.93-.7,1.83,1.83,0,0,1-.31-1.14q0-.08,0-.16a2.08,2.08,0,0,1-.6-.25,1.75,1.75,0,0,1-.84-1.58,2.07,2.07,0,0,1,.17-.74l-.83-.79h0a2.88,2.88,0,0,1-.66-1.73,2.62,2.62,0,0,1,.38-1.7l.71.5a1.78,1.78,0,0,0-.22,1.13h0a2,2,0,0,0,.38,1.16h0l1.06,1,.26.25-.19.3a1.3,1.3,0,0,0-.21.64h0a.89.89,0,0,0,.43.81,1.39,1.39,0,0,0,.69.19l.59,0-.2.56a1.47,1.47,0,0,0-.09.42h0a1,1,0,0,0,.16.61,1,1,0,0,0,.5.37,1.42,1.42,0,0,0,.4.08l.55,0-.15.53a1.36,1.36,0,0,0,0,.82,1,1,0,0,0,.34.47,1,1,0,0,0,.58.18,1.86,1.86,0,0,0,1-.36l.67-.45v.81a1.27,1.27,0,0,0,.12.55.71.71,0,0,0,.31.32,1,1,0,0,0,.47.1,1.39,1.39,0,0,0,.59-.14l.27-.13.22.21.07.06h0a1.47,1.47,0,0,0,1,.27,1.62,1.62,0,0,0,1.08-.49L16,21l.65-.57,2,2.25.08,0a2,2,0,0,0,1.25,0,1.47,1.47,0,0,0,.89-.81ZM9.94,6.18a15.4,15.4,0,0,1,2.81-.27,12.3,12.3,0,0,1,2.41.2,6.78,6.78,0,0,1,2.24-.75,10.9,10.9,0,0,1,3-.14,10.75,10.75,0,0,1,1.33.26h0A10,10,0,0,1,23,5.88a8.53,8.53,0,0,1,1.14.56,6.6,6.6,0,0,1,1,.69l-.57.66a5.68,5.68,0,0,0-.83-.59,7.6,7.6,0,0,0-1-.5,9,9,0,0,0-1.14-.38h0a9.9,9.9,0,0,0-1.22-.24,10,10,0,0,0-2.77.13,5.47,5.47,0,0,0-2.05.72L15.34,7l-.19,0a10.91,10.91,0,0,0-2.4-.22A14.52,14.52,0,0,0,10.1,7l-.17-.85Z"/><path class="cls-1" d="M30.7,10.75a.77.77,0,0,0-1.07.19h0A.77.77,0,0,0,29.81,12h0a.77.77,0,0,0,1.07-.19v0a.77.77,0,0,0-.19-1.06ZM30,10.11a1.29,1.29,0,0,1,1,.22h0a1.29,1.29,0,0,1,.28,1.79l0,0h0a1.29,1.29,0,0,1-1.79.28h0a1.29,1.29,0,0,1-.28-1.79v0h0a1.29,1.29,0,0,1,.82-.5Z"/><path class="cls-1" d="M22.92,4.16l5.14-2.87.38-.21.21.38,3.9,7h0a5,5,0,0,1,.62,3.32,3.68,3.68,0,0,1-1.9,2.43h0l-2.09,1.17-.38.21-.21-.38L22.75,4.75l-.21-.38.38-.21Zm5.18-1.9L23.72,4.71l5.42,9.7,1.71-1h0a2.85,2.85,0,0,0,1.48-1.86,4.19,4.19,0,0,0-.55-2.74L28.1,2.26Z"/></g></g></svg>