<svg xmlns="http://www.w3.org/2000/svg" id="debt" viewBox="0 0 234 250"><defs><style>.cls-1{fill-rule:evenodd;}.cls-2{fill:#262424;}</style></defs><title>Ресурс 1</title><g id="Слой_2" data-name="Слой 2"><g id="Layer_1" data-name="Layer 1"><path class="cls-1" d="M5,81H58a4,4,0,0,0,4-2.23,3.89,3.89,0,0,0-.92-4.44l-11-10.58A100.12,100.12,0,0,1,123.62,32c51.19,0,97.49,37.59,98,86.86a6.17,6.17,0,0,0,12.32-.05C235.38,53.59,180.82,0,113,0A123.22,123.22,0,0,0,23.43,38.14L12,27.17a4.28,4.28,0,0,0-4.61-.88A3.84,3.84,0,0,0,5,30.05L5,81Zm224,88H176a4,4,0,0,0-4,2.23,3.89,3.89,0,0,0,.92,4.43l11,10.58A100.13,100.13,0,0,1,110.38,218c-51.19,0-97.49-37.59-98-86.86a6,6,0,0,0-6.16-5.87A6,6,0,0,0,0,131.23C-1.38,196.41,53.18,250,121,250a123.22,123.22,0,0,0,89.58-38.14l11.41,11a4.28,4.28,0,0,0,4.62.88,3.84,3.84,0,0,0,2.43-3.76L229,169Z"/><path class="cls-2" d="M157.93,89.86a23.33,23.33,0,0,0-6.56-9.1,25.24,25.24,0,0,0-10.74-5.44,50.89,50.89,0,0,0-11.69-1H89.61v46.94H83.19V131.8h6.43v4.27H83.19V146.6h6.43v29.07h11.28V146.6h40.39V136.07H100.89V131.8h28.94c10.87,0,18.65-3,23.51-8.94,4.64-5.64,7.47-10.59,7.47-19.23A40.46,40.46,0,0,0,157.93,89.86Zm-14.82,26.59c-2.83,3.24-6.57,4.82-13.13,4.82H100.89V85.11h28.87c4.62,0,7.82.29,9.46.88,2.71,1.72,4.84,3,6.41,6a22.6,22.6,0,0,1,2.46,10.81A20.86,20.86,0,0,1,143.11,116.46Z"/></g></g></svg>