<?xml version="1.0" encoding="utf-8"?>
<!-- Generator: Adobe Illustrator 16.0.0, SVG Export Plug-In . SVG Version: 6.00 Build 0)  -->
<!DOCTYPE svg PUBLIC "-//W3C//DTD SVG 1.1//EN" "http://www.w3.org/Graphics/SVG/1.1/DTD/svg11.dtd">
<svg xmlns="http://www.w3.org/2000/svg" viewBox="0 0 20.57 26.36">
  <defs>
    <style>
      .cls-2{fill:#3f3843;fill-rule:evenodd}
    </style>
  </defs>
  <g id="Слой_2" data-name="Слой 2">
    <g id="Слой_1-2" data-name="Слой 1">
      <path d="M.61 0h20v26.36H0V0zm18.73 1.23H1.23v23.91h18.11V1.23z" fill="#3f3843"/>
      <path class="cls-2" d="M8.07 14.73A4.27 4.27 0 1 1 3.8 19a4.27 4.27 0 0 1 4.27-4.27zm0 .48A3.8 3.8 0 1 1 4.28 19a3.8 3.8 0 0 1 3.8-3.79zm0 .5A3.3 3.3 0 1 1 4.78 19a3.3 3.3 0 0 1 3.3-3.3zm0 1.15A2.15 2.15 0 1 1 5.93 19a2.14 2.14 0 0 1 2.15-2.14z"/>
      <path class="cls-2" d="M6.72 18.81h2.71v.39H6.72v-.39zM7.11 18.04h1.94v.39H7.11v-.39zM7.13 19.59h1.94v.39H7.13v-.39zM4.89 4.68h11.55V6.1H4.89V4.68zM4.88 7.64h11.54v1.42H4.88V7.64zM4.88 10.69h11.54v1.42H4.88v-1.42z"/>
    </g>
  </g>
</svg>