<svg xmlns="http://www.w3.org/2000/svg" id="distantly" viewBox="0 0 19.43 19.21">
  <defs>
    <style>
      .cls-1{fill:#fffb3f}.cls-2{fill:none;stroke:#fff;stroke-miterlimit:10;stroke-width:.5px;fill-rule:evenodd}
    </style>
  </defs>
  <g id="Слой_2" data-name="Слой 2">
    <g id="Слой_1-2" data-name="Слой 1">
      <path class="cls-1" fill="#e49e3e" d="M10.45 12.72V9.64h.05a5.79 5.79 0 0 1-.05-1.43V6a5.82 5.82 0 0 1 0-1V3.15.84h.07a5.79 5.79 0 0 1 0-.76V.02h-.35a9.61 9.61 0 0 0 0 19.21h.19a5.66 5.66 0 0 1 .14-.83v-4.7a5.83 5.83 0 0 1-.05-.98zM3.93 3.4a8.77 8.77 0 0 1 3.7-2.2 17.55 17.55 0 0 0-1.7 3.47 16.83 16.83 0 0 1-2.34-.9zm-.67.76a17.29 17.29 0 0 0 2.52 1 14.46 14.46 0 0 0-.68 4H1.38a8.73 8.73 0 0 1 1.88-5zm-.2 10.63a8.73 8.73 0 0 1-1.7-5.15h3.73a16.15 16.15 0 0 0 .58 4.12 17.29 17.29 0 0 0-2.61 1.03zm.87 1q-.29-.29-.56-.61a16.89 16.89 0 0 1 2.43-1 22.61 22.61 0 0 0 1.48 3.72 8.78 8.78 0 0 1-3.35-2.09zm6 2.57a8.8 8.8 0 0 1-2-.27 22.57 22.57 0 0 1-1.65-4 16 16 0 0 1 3.66-.55zm0-5.32a16.47 16.47 0 0 0-3.8.57 15.68 15.68 0 0 1-.56-4h4.38zm0-3.91H5.59a14 14 0 0 1 .66-3.86 16.52 16.52 0 0 0 3.69.56zm0-3.8a16 16 0 0 1-3.53-.54A17.42 17.42 0 0 1 8.34 1 8.75 8.75 0 0 1 9.95.84z"/>
      <circle class="cls-1" fill="#e49e3e" cx="6.35" cy="5.01" r="1.06"/>
      <circle class="cls-1" fill="#e49e3e" cx="1.06" cy="9.48" r="1.06"/>
      <circle class="cls-1" fill="#e49e3e" cx="6" cy="13.91" r="1.06"/>
      <path class="cls-2" fill="none" stroke="#ffffff" stroke-miterlimit="10" stroke-width=".5px" fill-rule="evenodd" d="M15.5 6l-.82-1.2a.27.27 0 0 0-.27-.12l-1.66.2a.8.8 0 0 0-.66.57 11.46 11.46 0 0 0 0 5.24 1.16 1.16 0 0 0 1 .76h.24l.19 6a1.16 1.16 0 0 0 .94 1 1.15 1.15 0 0 0 .81-.31.21.21 0 0 1 .33 0 1.15 1.15 0 0 0 .81.31 1.16 1.16 0 0 0 .94-1l.19-6h.24a1.16 1.16 0 0 0 1-.76 11.46 11.46 0 0 0 0-5.24.8.8 0 0 0-.66-.57l-1.66-.2a.27.27 0 0 0-.27.12L15.5 6zM15.52.52A1.59 1.59 0 0 1 17 2.18c0 .9-.73 2-1.58 2s-1.53-1.12-1.51-2A1.58 1.58 0 0 1 15.52.52z"/>
    </g>
  </g>
</svg>