<svg xmlns="http://www.w3.org/2000/svg" id="inheritance" viewBox="0 0 202 256"><defs><style>.cls-1{fill:#262424;}</style></defs><title>Ресурс 2</title><g id="Слой_2" data-name="Слой 2"><g id="Layer_1" data-name="Layer 1"><path d="M190,20h6a6,6,0,0,1,6,6V234a22,22,0,0,1-22,22H26a6,6,0,0,1-6-6v-6H180a10,10,0,0,0,10-10V26h0V20ZM150,195.93H96v-12h54v12Zm0-24H96v-12h54v12Zm0-24H96V136h54v12Zm0-72H96V64h54V76Zm0,48H96V112h54v12Zm0-72H96V40h54V52ZM76,12V70a6,6,0,0,1-6,6H12V224H170V12ZM64,64V20.48L20.49,64ZM176,236H6a6,6,0,0,1-6-6V70a6,6,0,0,1,1.81-4.29L65.76,1.76A6,6,0,0,1,70,0H176a6,6,0,0,1,6,6V230a6,6,0,0,1-6,6Z"/><path class="cls-1" d="M74,153.93a16.1,16.1,0,0,0-4.52-6.28A17.41,17.41,0,0,0,62,143.9a35.11,35.11,0,0,0-8.07-.68H26.85V175.6H22.42v7.26h4.43v2.94H22.42v7.26h4.43v20.05h7.78V193.07H62.49V185.8H34.63v-2.94h20c7.5,0,12.87-2.1,16.21-6.17C74,172.8,76,169.39,76,163.42A27.91,27.91,0,0,0,74,153.93ZM63.75,172.28c-2,2.24-4.53,3.32-9.06,3.32H34.63V150.65H54.54a22.86,22.86,0,0,1,6.53.61c1.87,1.19,3.34,2.1,4.42,4.14a15.59,15.59,0,0,1,1.7,7.46A14.39,14.39,0,0,1,63.75,172.28Z"/></g></g></svg>