<svg xmlns="http://www.w3.org/2000/svg" viewBox="0 0 63.52 55.12">
  <defs>
    <style>
      .cls-1,.cls-3{fill:none;stroke:#fff;stroke-miterlimit:10;stroke-width:2px}.cls-3{fill:#e49e3e}
    </style>
  </defs>
  <g id="Слой_2" data-name="Слой 2">
    <g id="icons">
      <path class="cls-1" fill="none" stroke="#ffffff" stroke-miterlimit="10" stroke-width="2px" d="M47.5 10.73A24 24 0 0 1 40 50.29M52.5 40.56c3.77.57 8.14-.31 9.26-7.68-4.66-.71-8.41 2.12-9.26 7.68z"/>
      <path class="cls-1" fill="none" stroke="#ffffff" stroke-miterlimit="10" stroke-width="2px" d="M44.92 48.18c3 2.29 7.31 3.59 11.8-2.38-3.72-2.8-8.42-2.11-11.8 2.38zM55.4 29.52c3.79-.4 7.8-2.36 7-9.78-4.67.49-7.58 4.19-7 9.78zM53.66 19.65c3.25-2 6-5.48 2.13-11.85-4.02 2.46-5.06 7.05-2.13 11.85zM48.33 11.2c.94-3.69.49-8.13-6.75-10-1.16 4.59 1.3 8.61 6.75 10zM16 10.73a24 24 0 0 0 7.5 39.55"/>
      <path class="cls-1" fill="none" stroke="#ffffff" stroke-miterlimit="10" stroke-width="2px" d="M11 40.56c-3.77.57-8.14-.31-9.26-7.68 4.68-.71 8.43 2.12 9.26 7.68zM18.6 48.18c-3 2.29-7.31 3.59-11.8-2.38 3.76-2.8 8.42-2.11 11.8 2.38zM8.12 29.52c-3.79-.4-7.8-2.36-7-9.78 4.67.49 7.58 4.19 7 9.78zM9.85 19.65c-3.25-2-6-5.48-2.13-11.85 4.03 2.46 5.07 7.05 2.13 11.85zM15.18 11.2c-.94-3.69-.49-8.13 6.75-10 1.17 4.59-1.29 8.61-6.75 10z"/>
      <path fill="#a3d4ff" d="M28.5 38.71v14l3-3 3 3v-14h-6z"/>
      <path class="cls-1" fill="none" stroke="#ffffff" stroke-miterlimit="10" stroke-width="2px" d="M16.5 16.71h30v23h-30z"/>
      <path class="cls-3" fill="#e49e3e" stroke="#ffffff" stroke-miterlimit="10" stroke-width="2px" d="M34.5 38.71v14l-3-3-3 3v-14"/>
      <circle class="cls-3" fill="#e49e3e" stroke="#ffffff" stroke-miterlimit="10" stroke-width="2px" cx="31.5" cy="37.71" r="5"/>
      <path class="cls-1" fill="none" stroke="#ffffff" stroke-miterlimit="10" stroke-width="2px" d="M23.5 23.71h16M26.5 27.71h10"/>
    </g>
  </g>
</svg>