<svg xmlns="http://www.w3.org/2000/svg" id="price" viewBox="0 0 24.15 18.5">
  <defs>
    <style>
      .cls-1{fill:#fff}.cls-2{fill:#ffa833}.cls-3{fill:none;stroke:#fff;stroke-miterlimit:10;stroke-width:.5px}
    </style>
  </defs>
  <g id="Слой_2" data-name="Слой 2">
    <g id="Слой_1-2" data-name="Слой 1">
      <path class="cls-1" fill="#ffffff" d="M16.07 7.53H21.59V8l.05 7.28v.42h-5.42l.26-.83h4.34V8.42h-4.33l-.37-.83zm-5.18 8.19L6 15.76h-.39v-.41l-.1-7.47v-.42h5.61l-.32.83H6.35l.08 6.62h4.21l.25.83z"/>
      <path class="cls-1" fill="#ffffff" d="M4.34 16.73V6.49h18.5v10.42H4.34v-.17zm.29-9.91v9.74h17.92V6.82z"/>
      <path class="cls-1" fill="#ffffff" d="M3 18.17V5.59h21.11V18.5H3v-.33zm.65-11.92l.05 11.59h19.79V6.25z"/>
      <path class="cls-1" fill="#ffffff" d="M13.56 6.43A3.94 3.94 0 0 1 16.62 8a5.92 5.92 0 0 1 1.24 3.71 5.92 5.92 0 0 1-1.24 3.71A3.93 3.93 0 0 1 13.57 17a3.93 3.93 0 0 1-3.06-1.56 5.92 5.92 0 0 1-1.24-3.71A5.92 5.92 0 0 1 10.51 8a3.93 3.93 0 0 1 3.05-1.57zm0 .5a3.44 3.44 0 0 0-2.66 1.38 5.42 5.42 0 0 0-1.13 3.39 5.42 5.42 0 0 0 1.13 3.4 3.44 3.44 0 0 0 2.67 1.38 3.44 3.44 0 0 0 2.66-1.38 5.42 5.42 0 0 0 1.13-3.39 5.42 5.42 0 0 0-1.13-3.39 3.44 3.44 0 0 0-2.67-1.38z"/>
      <path class="cls-2" fill="#e49e3e" d="M11.4 12.59l.68-.06a1.52 1.52 0 0 0 .23.68 1.25 1.25 0 0 0 .55.43 2.09 2.09 0 0 0 .84.16 2 2 0 0 0 .73-.12 1 1 0 0 0 .47-.34.79.79 0 0 0 .16-.47.71.71 0 0 0-.15-.45 1.12 1.12 0 0 0-.49-.32q-.22-.08-1-.27a5 5 0 0 1-1.06-.34 1.48 1.48 0 0 1-.56-.49 1.25 1.25 0 0 1-.19-.68 1.39 1.39 0 0 1 .24-.78 1.45 1.45 0 0 1 .68-.54 2.59 2.59 0 0 1 1-.19 2.73 2.73 0 0 1 1.07.2 1.54 1.54 0 0 1 .72.58 1.66 1.66 0 0 1 .27.86l-.7.05a1.11 1.11 0 0 0-.38-.78 1.47 1.47 0 0 0-1-.27 1.53 1.53 0 0 0-1 .24.72.72 0 0 0-.3.58.63.63 0 0 0 .21.49 2.9 2.9 0 0 0 1.09.39 7.3 7.3 0 0 1 1.21.35 1.66 1.66 0 0 1 .71.56 1.35 1.35 0 0 1 .23.78 1.48 1.48 0 0 1-.25.82 1.65 1.65 0 0 1-.72.6 2.51 2.51 0 0 1-1.05.21 3.15 3.15 0 0 1-1.24-.22 1.73 1.73 0 0 1-.79-.65 1.84 1.84 0 0 1-.3-1z"/>
      <path class="cls-2" fill="#e49e3e" d="M13.34 8.28v6.79h-.51V8.28h.51zM14.26 8.28v6.78h-.5V8.28h.5z"/>
      <path class="cls-3" fill="none" stroke="#ffffff" stroke-miterlimit="10" stroke-width=".7px" d="M2.98 13.75L.32 6.3 19.89.32l1.35 5.42"/>
      <path class="cls-3" fill="none" stroke="#ffffff" stroke-miterlimit="10" stroke-width=".5px" d="M12.15 5.48l5.8-1.77.58 2.29"/>
    </g>
  </g>
</svg>
 