<?xml version="1.0" encoding="utf-8"?>
<!-- Generator: Adobe Illustrator 16.0.0, SVG Export Plug-In . SVG Version: 6.00 Build 0)  -->
<!DOCTYPE svg PUBLIC "-//W3C//DTD SVG 1.1//EN" "http://www.w3.org/Graphics/SVG/1.1/DTD/svg11.dtd">
<svg id="scale" xmlns="http://www.w3.org/2000/svg" viewBox="0 0 176.06 151.73"><defs><style>.cls-1{fill:#e49e3e;}.cls-2{fill:#1d1d1b;}</style></defs><title>Ресурс 2</title><g id="Слой_2" data-name="Слой 2"><g id="Layer_1" data-name="Layer 1"><path class="cls-1" fill="#ffffff" d="M31.85,117.79A31.35,31.35,0,0,0,63.2,86.94h0a.49.49,0,0,0,.2,0,.5.5,0,0,0,.26-.66L32.31,15.06l0,0,0,0,0,0,0,0,0,0,0,0-.05,0h0l-.06,0h-.27l-.05,0h0l0,0,0,0,0,0,0,0,0,0,0,0,0,0,0,0L0,86.24a.5.5,0,0,0,.26.66.49.49,0,0,0,.2,0h0A31.35,31.35,0,0,0,31.85,117.79ZM1,86.44l30.8-69.93,30.8,69.93Z"/><path class="cls-1" fill="#ffffff" d="M176,86.24,144.67,15.06l0,0,0,0,0,0,0,0,0,0,0,0-.05,0h0l-.06,0h-.27l-.05,0h0l0,0,0,0,0,0,0,0,0,0,0,0,0,0,0,0L112.4,86.24a.5.5,0,0,0,.26.66.49.49,0,0,0,.2,0h0a31.35,31.35,0,0,0,62.69,0h0a.49.49,0,0,0,.2,0A.5.5,0,0,0,176,86.24Zm-62.61.2,30.8-69.93L175,86.44Z"/><path class="cls-2" fill="#e49e3e" d="M19.51,14.46H86.39A3,3,0,0,0,87,16.23c.55,15,3.53,120.65-21.36,120.65-23.52,0-20.4,6-20.4,6h88s3.12-6-20.4-6c-24.73,0-21.95-104.27-21.37-120.34a3,3,0,0,0,.85-2.07h65.89a.67.67,0,0,0,.67-.67V11.62a.67.67,0,0,0-.67-.67H93.74A6.35,6.35,0,1,0,85,11H19.51a.67.67,0,0,0-.67.67v2.17A.67.67,0,0,0,19.51,14.46Z"/><rect class="cls-2" fill="#e49e3e" x="23.66" y="144.71" width="130.41" height="7.02" rx="0.67" ry="0.67"/></g></g></svg>