<svg xmlns="http://www.w3.org/2000/svg" id="tie" viewBox="0 0 58.88 154.58"><defs><style>.cls-1{fill:#1d1d1b;}</style></defs><title>Ресурс 3</title><g id="Слой_2" data-name="Слой 2"><g id="Layer_1" data-name="Layer 1"><path class="cls-1" fill="#e49e3e" d="M23.08,31.53c-.57.63,2.59,11.66,2.59,11.66l7,0s3.27-10.5,2.68-11.73C35,30.77,23.59,31,23.08,31.53Z"/><polygon class="cls-1" fill="#ffffff" points="25.43 43.82 17.98 132.43 30.19 154.58 42.5 131.78 32.76 43.84 25.43 43.82"/><path class="cls-1" fill="#e49e3e" d="M3.35,9.29C2,16.3,23,31.21,23,31.21S11.51,40,9.15,46.88c-.21.61-7.7-13.93-9.15-30.58C-.16,14.36,3.71,7.38,3.35,9.29Z"/><path class="cls-1" fill="#e49e3e" d="M55.56,9.41c1.29,7-19.76,21.83-19.76,21.83S47.26,40.05,49.59,47c.21.61,7.76-13.89,9.29-30.54C59,14.49,55.21,7.5,55.56,9.41Z"/><path class="cls-1" fill="#e49e3e" d="M7.59,15.19c10.56-8.18,33-9.45,44.07.09,1.33,1.15,4-4.81,3.16-6.36-5.74-11-43.35-12.5-50.51-.6C3.35,9.88,6.14,16.3,7.59,15.19Z"/></g></g></svg>