<?xml version="1.0" encoding="utf-8"?>
<!-- Generator: Adobe Illustrator 16.0.0, SVG Export Plug-In . SVG Version: 6.00 Build 0)  -->
<!DOCTYPE svg PUBLIC "-//W3C//DTD SVG 1.1//EN" "http://www.w3.org/Graphics/SVG/1.1/DTD/svg11.dtd">
<svg xmlns="http://www.w3.org/2000/svg" id="umbrella" viewBox="0 0 214.3 241.89"><defs><style>.cls-1{fill:#3f3843;}.cls-2{fill:#fff;}.cls-3{fill:#3e3441;}</style></defs><title>Ресурс 2</title><g id="Слой_2" data-name="Слой 2"><g id="Слой_1-2" data-name="Слой 1"><path class="cls-1" d="M214.3,93.43c-.09-2.51-.39-5-.66-7.51a1.26,1.26,0,0,1,.2-1,5.37,5.37,0,0,1-1.44-6l-3.62-18.07a4.84,4.84,0,0,1-1.6-2.69,1,1,0,0,1-1.27-.6q-3.52-6.94-7.19-13.8c-.3-.56-.28-.92,0-1.24a5.27,5.27,0,0,1-.51-1.4l-8.76-9.24a4.67,4.67,0,0,1-4.36-4.6l-1.31-1.39a4.55,4.55,0,0,1-4.48-3.41l-.35-.23c-3.24-2.17-6.51-4.28-9.77-6.4a4.44,4.44,0,0,1-3.4-2.24,1.5,1.5,0,0,1-1-.21,107.06,107.06,0,0,0-19.79-7.81c-.69-.19-.91-.53-1-.91q-.88-.18-1.74-.39l0,.44c-1.2-.3-2.44-.69-3.71-.92q-8.89-1.65-17.79-3.2a1.09,1.09,0,0,1-.86-.47,19.24,19.24,0,0,1-9.34.3l.53.29L111,1l-1.8-.14,0-.28.52-.29-.17,0a4.87,4.87,0,0,1-2.61.7A4.78,4.78,0,0,1,104,0a1.25,1.25,0,0,1-1.22.49A50,50,0,0,0,95.93.7c-17.76,2.23-34.63,7.23-50,16.61A81.24,81.24,0,0,0,20.8,40.83a96,96,0,0,0-10,18.94,4.55,4.55,0,0,1-.6,3.65c-.81,1.32-1.54,2.7-2.25,4.11L4.43,82.38c2,2.21,1.65,6.26-1,7.85a11.06,11.06,0,0,0-.07,3.21,20.07,20.07,0,0,0,1.41,4.45h.1a4.45,4.45,0,0,1,3.35,1.22c.95-.56,1.83-1.23,2.77-1.81a16.93,16.93,0,0,1,1.57-.78,7.72,7.72,0,0,1,6.27-3.18,8.21,8.21,0,0,1,5.55,2.49c.79.19,1.57.41,2.35.67-.51.09-1,.15-1.53.19l.36.41a69.54,69.54,0,0,1,12.31-1.25A34.7,34.7,0,0,1,45,94.53C49.52,93.42,56.4,93,60.11,93.8l0,.23a4.5,4.5,0,0,1,1.52.64c.05-.2.11-.42.17-.67a34.67,34.67,0,0,1,9.51,2.83c.25.11.5.25.75.37l7.41,1.42c.73-.42,1.46-.89,2.36-1.43l-1.22,1.64,1.84.34.17,0c.46-.69.9-1.39,1.37-2.08a2.81,2.81,0,0,1,1.4-1.13c1.49-.41,3-.75,4.57-1.11a4.76,4.76,0,0,1,2.95-.93,5,5,0,0,1,2.17.46,25.77,25.77,0,0,1,8.76,1.22c.2.07.4.42.49.75a73.89,73.89,0,0,1,8.22.33c.1-.59.42-.87,1.08-1.07A30.82,30.82,0,0,1,128.9,95a28.26,28.26,0,0,1,9.76,3.84c1,.64,2,1.13,3.24.38a35.58,35.58,0,0,1,3.44-1.92,39.89,39.89,0,0,1,23.37-3.48,37,37,0,0,1,13.83,4.82,2.61,2.61,0,0,0,3,.08,17.4,17.4,0,0,1,3.25-1.66,24.83,24.83,0,0,1,11.87-1.7,16.24,16.24,0,0,1,8.1,3.33c.81.63,1.73,1.31,2.84.7a2.58,2.58,0,0,0,1.5-2.75c0-.22.22-.47.31-.71A7.36,7.36,0,0,0,214.3,93.43ZM30.23,94.77C22.63,91.18,15,89.89,7,93.95c.42-2.88.74-5.6,1.22-8.28a112.33,112.33,0,0,1,10.12-31A84.74,84.74,0,0,1,52.51,18.88,123.87,123.87,0,0,1,88.61,5.37a.78.78,0,0,1,.64.13c-.77.33-1.54.65-2.3,1A81.42,81.42,0,0,0,61.27,24.86,113.21,113.21,0,0,0,36.65,64.22a103,103,0,0,0-6.29,29.31C30.33,93.93,30.27,94.32,30.23,94.77Zm3.43-1.09c.36-2.4.62-4.64,1-6.85A115.85,115.85,0,0,1,56.24,38.41c7.63-10.26,16.6-19.14,27.59-25.82A65.55,65.55,0,0,1,99.75,5.44c.14,0,.3-.05.2,0-2.16,2-4.58,4.05-6.7,6.35-5,5.4-8.26,11.84-10.89,18.63A145.92,145.92,0,0,0,73,90c0,.84.13,1.67.2,2.51s.14,1.57.23,2.48C60.42,88,47.28,87.56,33.66,93.68Zm73.64,0c-10.3-4.66-20.47-4.4-30.91.7,0-2.21,0-4.15,0-6.08A146,146,0,0,1,86.92,30.21c3.35-8.27,8.13-15.59,15.44-21,1.53-1.13,3.2-2.08,4.94-3.2Zm33.81-.17c0,.19,0,.38-.1.81a33.38,33.38,0,0,0-15.34-3.95,31.57,31.57,0,0,0-15.3,3.42V6.14c1,.58,2,1.13,3,1.76a42,42,0,0,1,14.28,15.88c5.2,9.75,8.24,20.25,10.53,31A149.29,149.29,0,0,1,141.11,93.5Zm42.71.08c-13.39-6-26.53-5.56-39.57,1.41.08-1,.16-1.87.22-2.76a143.89,143.89,0,0,0-1-29.8,132.88,132.88,0,0,0-10.1-36.59c-3.24-7.23-7.56-13.71-13.81-18.74-.34-.28-.7-.53-1.05-.79a2.57,2.57,0,0,1-.94-1c1.91.67,3.85,1.27,5.73,2a81.09,81.09,0,0,1,26.93,18.23,117.89,117.89,0,0,1,30.65,52.25c1.34,4.75,2,9.7,2.94,14.55A7,7,0,0,1,183.82,93.59Zm3.63,1.23c-.23-2.3-.41-4.51-.68-6.71a108.36,108.36,0,0,0-17.13-46.48,102.8,102.8,0,0,0-20-23.11A75.85,75.85,0,0,0,128.54,5.59a.61.61,0,0,1-.38-.37c1,.2,1.92.39,2.88.6s1.95.45,2.92.69a117.07,117.07,0,0,1,36.7,15.8A84.52,84.52,0,0,1,202.29,61a116.93,116.93,0,0,1,8.35,32.91C202.65,89.94,195,91.11,187.45,94.81Z"/><path class="cls-2"  d="M183.82,93.59c-13.39-6-26.53-5.56-39.57,1.41.08-1,.16-1.87.22-2.76a143.9,143.9,0,0,0-1-29.8,132.87,132.87,0,0,0-10.1-36.59c-3.24-7.23-7.56-13.71-13.81-18.74-.34-.28-.7-.53-1.05-.79a2.57,2.57,0,0,1-.94-1c1.91.67,3.85,1.27,5.73,2a81.09,81.09,0,0,1,26.93,18.23,117.89,117.89,0,0,1,30.65,52.25c1.34,4.75,2,9.7,2.94,14.55A7,7,0,0,1,183.82,93.59Z"/><path class="cls-2" fill="#ffffff" d="M99.95,5.4c-2.16,2-4.58,4.05-6.7,6.35-5,5.4-8.26,11.84-10.89,18.62A145.92,145.92,0,0,0,73,90c0,.84.13,1.67.2,2.51s.14,1.57.23,2.48c-13-7-26.16-7.44-39.78-1.32.36-2.4.62-4.64,1-6.85A115.84,115.84,0,0,1,56.24,38.41c7.63-10.26,16.6-19.14,27.59-25.82A65.55,65.55,0,0,1,99.75,5.44C99.89,5.4,100,5.39,99.95,5.4Z"/><path class="cls-2" fill="#ffffff" d="M141,94.32a33.38,33.38,0,0,0-15.34-3.95,31.57,31.57,0,0,0-15.3,3.42V6.14c1,.58,2,1.13,3,1.76a42,42,0,0,1,14.28,15.88c5.2,9.75,8.24,20.25,10.53,31a149.31,149.31,0,0,1,2.93,38.73C141.1,93.69,141.06,93.89,141,94.32Z"/><path class="cls-2" d="M107.3,93.68c-10.3-4.66-20.47-4.4-30.91.7,0-2.21,0-4.15,0-6.08A146.06,146.06,0,0,1,86.92,30.21c3.35-8.27,8.13-15.59,15.44-21,1.53-1.13,3.2-2.08,4.94-3.2Z"/><path class="cls-2" d="M210.64,93.9c-8-4-15.59-2.78-23.19.91-.23-2.3-.41-4.51-.68-6.71a108.36,108.36,0,0,0-17.13-46.48,102.81,102.81,0,0,0-20-23.11A75.85,75.85,0,0,0,128.54,5.59a.61.61,0,0,1-.38-.37c1,.2,1.92.39,2.88.6s1.95.45,2.92.69a117.07,117.07,0,0,1,36.7,15.8A84.51,84.51,0,0,1,202.29,61,116.92,116.92,0,0,1,210.64,93.9Z"/><path class="cls-2" d="M30.23,94.77C22.63,91.18,15,89.89,7,93.95c.42-2.88.74-5.6,1.22-8.28a112.35,112.35,0,0,1,10.12-31A84.74,84.74,0,0,1,52.51,18.88,123.87,123.87,0,0,1,88.61,5.37a.78.78,0,0,1,.64.13c-.77.33-1.54.65-2.3,1A81.42,81.42,0,0,0,61.27,24.86,113.21,113.21,0,0,0,36.65,64.22a103,103,0,0,0-6.29,29.31C30.33,93.93,30.27,94.32,30.23,94.77Z"/><path class="cls-2" d="M165.07,11.4a53.88,53.88,0,0,1-7.72-4.19,5.26,5.26,0,0,1-1.42-1.38c-2.45-.12-4.89-.21-7.3-.47C147,5.2,145.48,5,144,4.66c.07.38.3.72,1,.91a107.06,107.06,0,0,1,19.79,7.81,1.5,1.5,0,0,0,1,.21A5.39,5.39,0,0,1,165.07,11.4Z"/><path class="cls-2" d="M89.92,94.82c-1.57.35-3.08.7-4.57,1.11A2.81,2.81,0,0,0,84,97.06c-.46.69-.91,1.39-1.37,2.08l2.11-.45c1.14-.24,2.27-.45,3.41-.65A4.91,4.91,0,0,1,89.92,94.82Z"/><path class="cls-2" d="M2.69,81.21a4.34,4.34,0,0,1,1.73,1.17L7.94,67.53A83.07,83.07,0,0,0,2.69,81.21Z"/><path class="cls-2" d="M56,94.74a4.79,4.79,0,0,1,2.83-.85,5.5,5.5,0,0,1,1.2.13l0-.23C56.4,93,49.52,93.42,45,94.53a56,56,0,0,1,9.37,0Z"/><path class="cls-2" d="M62.59,95.58c3.16.48,6.3,1,9.44,1.63-.25-.12-.49-.26-.75-.37A34.67,34.67,0,0,0,61.77,94c-.06.25-.12.46-.17.67A4.36,4.36,0,0,1,62.59,95.58Z"/><path class="cls-2" d="M97.28,96.73c2.33-.23,4.67-.38,7-.41-.09-.33-.28-.69-.49-.75A25.77,25.77,0,0,0,95,94.35,4.49,4.49,0,0,1,97.28,96.73Z"/><path class="cls-2" d="M208.57,53.13c-1.26-2.86-2.66-5.68-4.16-8.45a5.31,5.31,0,0,1-1.53.22,4.53,4.53,0,0,1-4.18-2.38c-.24.33-.27.68,0,1.24q3.68,6.86,7.19,13.8a1,1,0,0,0,1.27.6A5.38,5.38,0,0,1,208.57,53.13Z"/><path class="cls-2" d="M199.15,36.59a56.81,56.81,0,0,1-4.45-7.18l-.37-.5a4.54,4.54,0,0,1-4.46,3l-.46,0,8.76,9.24A5.49,5.49,0,0,1,199.15,36.59Z"/><path class="cls-2" d="M180.53,17.17c-2.43-.85-4.88-1.68-7.31-2.55a4.65,4.65,0,0,1-3.35,1.27,5.71,5.71,0,0,1-.73-.05c3.27,2.12,6.54,4.24,9.77,6.4l.35.23A5.42,5.42,0,0,1,180.53,17.17Z"/><path class="cls-2" d="M3.43,90.23a4.89,4.89,0,0,1-2.56.67l-.55,0a19.35,19.35,0,0,0-.15,6c0,.1,0,.18,0,.27a14.78,14.78,0,0,0,4.55.7,20.07,20.07,0,0,1-1.41-4.45A11.06,11.06,0,0,1,3.43,90.23Z"/><path class="cls-2" d="M11,97.3c-.94.58-1.82,1.25-2.77,1.81a5,5,0,0,1,1.37,2.53l.21-.16.15-.39a17.84,17.84,0,0,1,2.61-4.58A16.9,16.9,0,0,0,11,97.3Z"/><path class="cls-3" d="M153.9,155.13a23.6,23.6,0,0,0-6.63-9.21,25.52,25.52,0,0,0-10.86-5.5,51.47,51.47,0,0,0-11.83-1H84.81v47.47h-6.5v10.65h6.5v4.31h-6.5V212.5h6.5v29.4h11.4V212.5h40.84V201.85H96.21v-4.31h29.27c11,0,18.86-3.08,23.77-9,4.69-5.71,7.56-10.7,7.56-19.45A40.91,40.91,0,0,0,153.9,155.13Zm-15,26.89c-2.86,3.28-6.65,4.87-13.28,4.87H96.21V150.32h29.2c4.67,0,7.91.3,9.57.89,2.74,1.74,4.9,3.08,6.48,6.06a22.85,22.85,0,0,1,2.49,10.93A21.1,21.1,0,0,1,138.91,182Z"/></g></g></svg>