<svg xmlns="http://www.w3.org/2000/svg" id="worker" viewBox="0 0 119.92 91.11"><defs><style>.cls-1{fill:#414042;}</style></defs><title>Ресурс 2</title><g id="Слой_2" data-name="Слой 2"><g id="Object"><path class="cls-1" d="M80.14,70.85a19.37,19.37,0,0,0-12.52-7.92l-1.68,2.48c.58.11,1.14.24,1.69.39L63.57,77.87l-.46-8.51a1.21,1.21,0,0,1-1.64,0l-.62,8.89-4-12.41c.59-.16,1.2-.31,1.84-.43L57.1,63a18.73,18.73,0,0,0-12.65,7.85,23.79,23.79,0,0,0-4.78,13.67v.38l.23.31c2.39,3.2,6.25,3.68,8.35,3.68h.55c1.63,1.24,4.49,1.89,7.2,2.23H68.58c2.72-.34,5.58-1,7.21-2.23h.55c2.09,0,6-.48,8.35-3.68l.23-.31v-.38A23.79,23.79,0,0,0,80.14,70.85Z"/><path class="cls-1" d="M60.11,66.6c0,.48,1.41,2.63,2.18,2.63s2.18-2.31,2.18-2.83L62.29,65A17.2,17.2,0,0,0,60.11,66.6Z"/><path class="cls-1" d="M51.29,53.31c.16.82.61,1.44,1.06,1.51C54.08,60.28,58,64.35,62,64.35c4.32,0,8.09-3.85,9.74-9.57a1.82,1.82,0,0,0,1-1.5,1.9,1.9,0,0,0-.35-1.73c0-.16,0-.33.06-.49.07-.36.12-.68.13-.91.4-5.07-2.07-11.58-10.24-11.58-8,0-11.34,5.26-10.91,11.12q0,.48,0,1c0,.32.07.63.11.94A1.93,1.93,0,0,0,51.29,53.31Zm1.37-2.84a12.06,12.06,0,0,0,7.42-1.08,26,26,0,0,1,4.56-2.16s.72.86,3.57,2.11a12.3,12.3,0,0,0,3,1A10,10,0,0,1,71,52.63c0,.09-.05.19-.07.29a3,3,0,0,0-.05.69c-.06.5-.1,1-.11,1.37-1.59,5.09-4.95,8.48-8.76,8.48-3.28,0-6.56-3.23-8.34-7.65C53.57,54.38,52.54,50.44,52.65,50.47Z"/><path class="cls-1" d="M40.47,32.29A21,21,0,0,0,28,24.37l-1.68,2.48h0l-.71,1.05-2-1.42H21.85L19.74,28,19,26.85h0l-1.6-2.41A18.73,18.73,0,0,0,4.78,32.29,23.79,23.79,0,0,0,0,46v.38l.23.31c2.39,3.2,6.25,3.68,8.35,3.68h.55c1.62,1.23,4.46,1.88,7.16,2.22H29c2.7-.34,5.54-1,7.17-2.22h.55c2.09,0,6-.48,8.35-3.68l.23-.31V46A23.79,23.79,0,0,0,40.47,32.29ZM21.88,27h0Zm14.8,21a8,8,0,0,1-.8,0l-.55-.06-.4.38c-1.63,1.58-7.44,2.3-12.15,2.3h-.1l1.73-1.66-1-18.14a1.64,1.64,0,0,1-.82.32,1.64,1.64,0,0,1-.82-.32L20.56,48.68l2,1.92h-.1c-4.71,0-10.52-.72-12.15-2.3l-.4-.38L9.38,48a8,8,0,0,1-.8,0C7,48,4.13,47.69,2.33,45.57c.16-4.66,3.91-15.5,15.23-18.39l1.3,4.62,1.89-3c.46.8,1.33,1.89,1.88,1.89s1.32-1,1.8-1.88l1.79,3.15,1.73-4.69c11.16,3,14.82,13.71,15,18.33C41.12,47.69,38.26,48,36.67,48Z"/><path class="cls-1" d="M11.62,14.75c.16.82.61,1.44,1.06,1.51,1.72,5.46,5.62,9.53,9.65,9.53,4.33,0,8.09-3.85,9.74-9.57a1.82,1.82,0,0,0,1-1.5A1.9,1.9,0,0,0,32.75,13c0-.16,0-.33.06-.49.07-.36.12-.68.13-.91C33.35,6.5,30.88,0,22.71,0c-8,0-11.34,5.26-10.91,11.12q0,.48,0,1c0,.32.07.63.11.94A1.93,1.93,0,0,0,11.62,14.75ZM13,11.91a12.06,12.06,0,0,0,7.42-1.08A26,26,0,0,1,25,8.66s.72.86,3.57,2.11a12.3,12.3,0,0,0,3,1,10,10,0,0,1-.22,2.32c0,.09-.05.19-.07.29a3,3,0,0,0-.05.69c-.06.5-.1,1-.11,1.37-1.59,5.09-4.95,8.48-8.76,8.48-3.28,0-6.56-3.23-8.34-7.65C13.9,15.81,12.88,11.88,13,11.91Z"/><path class="cls-1" d="M95.17,26.38"/><path class="cls-1" d="M115.51,31.28c-2.2-2.9-4.47-5.17-10.17-6.81l-1.82,1.77c.05,0,2.19.33,2.6,1.54s0,5.45,0,5.45H92.66s-.52-4.35,0-5.49,2.42-1.35,2.51-1.36l-1.74-1.91c-6.25,1.49-8.6,3.91-10.81,6.81a21.93,21.93,0,0,0-4.41,12.6v.35l.21.28c2.2,2.95,5.76,3.39,7.69,3.39h.5c2.92,2.21,10.09,2.39,12.3,2.39h.29c2.21,0,9.38-.18,12.3-2.39h.5c1.93,0,5.5-.44,7.69-3.39l.21-.28v-.35A21.93,21.93,0,0,0,115.51,31.28ZM87.3,45.69l-.44,0a7.35,7.35,0,0,1-.74,0c-1.46,0-4.1-.3-5.76-2.26a19.36,19.36,0,0,1,7.18-13.83c.31,1.93-1.7,6-1.7,9.46C85.84,41.64,87.62,44,87.3,45.69Zm24.71.08a7.36,7.36,0,0,1-.74,0l-.48-.06c-.43-1.56,1.73-4,1.73-7.51,0-2.79-2.17-7.06-1.73-8.81,5.41,4.12,6.87,10.84,7,14.15C116.11,45.47,113.48,45.77,112,45.77Z"/><path class="cls-1" d="M107.13,11.53a32.34,32.34,0,0,1-.05,4.25c-.9,4.43-4.2,7.64-7.86,7.64-3.11,0-6.33-3-7.47-6.89a32.12,32.12,0,0,1-.22-5.23h-.44a30.35,30.35,0,0,0,.23,5.34c1.2,4.11,4.6,7.21,7.9,7.21,3.87,0,7.35-3.36,8.29-8a30.88,30.88,0,0,0,.05-4.38Z"/><path class="cls-1" d="M110.43,10.73C109.79,7.42,106.61,1,99.65,1c-7.27,0-10.74,4.63-11.46,9.88-.54,3.88,2.37,11.87,2.37,11.87H96.1a10.52,10.52,0,0,1-4.56-6.12,24.38,24.38,0,0,1-.2-4.75l3.33,0,.63-4.45.6,4.46,11.41.05a22.93,22.93,0,0,1,0,3.91,10,10,0,0,1-4.69,6.88h5.52S111.17,14.57,110.43,10.73Z"/></g></g></svg>